<?xml version="1.0" encoding="UTF-8"?>
<svg id="Layer_2" data-name="Layer 2" xmlns="http://www.w3.org/2000/svg" viewBox="0 0 439.34 327.43">
  <defs>
    <style>
      .cls-1 {
        fill: #3b3b3c;
      }

      .cls-1, .cls-2 {
        stroke-width: 0px;
      }

      .cls-2 {
        fill: #231f20;
      }
    </style>
  </defs>
  <g id="Layer_1-2" data-name="Layer 1">
    <g>
      <path class="cls-1" d="m9.24,7.06c0-2.29,1.06-4.05,3.17-5.25,2.11-1.21,4.5-1.81,7.16-1.81h63.26c2.54,0,4.38,1.03,5.53,3.1,1.15,2.07,1.72,4.25,1.72,6.54,0,2.64-.61,4.97-1.81,6.97-1.21,2.01-3.02,3.01-5.44,3.01h-50.02v34.44h27.73c2.42,0,4.23.92,5.44,2.75,1.21,1.84,1.81,3.9,1.81,6.2,0,1.95-.58,3.87-1.72,5.77-1.15,1.89-2.99,2.84-5.53,2.84h-27.73v47.18c0,2.3-1.24,4.05-3.72,5.25-2.48,1.21-5.17,1.81-8.07,1.81s-5.74-.6-8.16-1.81c-2.42-1.21-3.62-2.95-3.62-5.25V7.06Z"/>
      <path class="cls-1" d="m102.77,125.87c-2.66,0-5.05-.6-7.16-1.81-2.12-1.21-3.17-2.95-3.17-5.25V6.89c0-2.41,1.21-4.16,3.62-5.25,2.42-1.09,5.13-1.64,8.16-1.64s5.59.55,8.07,1.64c2.48,1.09,3.72,2.84,3.72,5.25v99.35h44.22c2.42,0,4.2,1.01,5.35,3.01,1.15,2.01,1.72,4.28,1.72,6.8s-.57,4.65-1.72,6.72c-1.15,2.07-2.93,3.1-5.35,3.1h-57.46Z"/>
      <path class="cls-1" d="m209.88,126.9c-6.04,0-11.63-.72-16.77-2.15-5.14-1.43-9.61-3.7-13.41-6.8-3.81-3.1-6.8-7.15-8.97-12.14-2.18-4.99-3.26-11.11-3.26-18.34v-48.04c0-7.23,1.09-13.34,3.26-18.34,2.17-4.99,5.17-9.04,8.97-12.14,3.81-3.1,8.27-5.36,13.41-6.8,5.13-1.43,10.72-2.15,16.77-2.15s11.48.72,16.67,2.15c5.19,1.44,9.72,3.7,13.59,6.8,3.87,3.1,6.89,7.15,9.06,12.14,2.17,4.99,3.26,11.11,3.26,18.34v48.04c0,7.23-1.09,13.34-3.26,18.34s-5.2,9.04-9.06,12.14c-3.87,3.1-8.4,5.37-13.59,6.8-5.2,1.43-10.76,2.15-16.67,2.15Zm19.03-87.47c0-6.89-1.69-11.91-5.07-15.07-3.38-3.16-8.04-4.74-13.96-4.74s-10.69,1.58-13.96,4.74c-3.26,3.16-4.89,8.18-4.89,15.07v48.04c0,6.89,1.63,11.91,4.89,15.07,3.26,3.16,7.91,4.73,13.96,4.73s10.57-1.58,13.96-4.73c3.38-3.16,5.07-8.18,5.07-15.07v-48.04Z"/>
      <path class="cls-1" d="m304.67,126.9c-6.04,0-11.63-.72-16.77-2.15-5.14-1.43-9.61-3.7-13.41-6.8-3.81-3.1-6.8-7.15-8.97-12.14s-3.26-11.11-3.26-18.34v-48.04c0-7.23,1.09-13.34,3.26-18.34,2.17-4.99,5.17-9.04,8.97-12.14,3.81-3.1,8.28-5.36,13.41-6.8,5.13-1.43,10.72-2.15,16.77-2.15s11.48.72,16.67,2.15c5.19,1.44,9.72,3.7,13.59,6.8,3.87,3.1,6.89,7.15,9.06,12.14,2.18,4.99,3.26,11.11,3.26,18.34v48.04c0,7.23-1.09,13.34-3.26,18.34s-5.2,9.04-9.06,12.14c-3.87,3.1-8.4,5.37-13.59,6.8-5.2,1.43-10.76,2.15-16.67,2.15Zm19.03-87.47c0-6.89-1.7-11.91-5.08-15.07-3.38-3.16-8.04-4.74-13.96-4.74s-10.69,1.58-13.96,4.74c-3.26,3.16-4.89,8.18-4.89,15.07v48.04c0,6.89,1.63,11.91,4.89,15.07,3.26,3.16,7.91,4.73,13.96,4.73s10.57-1.58,13.96-4.73c3.38-3.16,5.08-8.18,5.08-15.07v-48.04Z"/>
      <path class="cls-1" d="m358.5,7.06c0-2.29,1.06-4.05,3.17-5.25,2.11-1.21,4.5-1.81,7.16-1.81h63.25c2.54,0,4.38,1.03,5.53,3.1,1.15,2.07,1.72,4.25,1.72,6.54,0,2.64-.61,4.97-1.81,6.97-1.21,2.01-3.02,3.01-5.44,3.01h-50.02v34.44h27.73c2.42,0,4.23.92,5.44,2.75,1.21,1.84,1.81,3.9,1.81,6.2,0,1.95-.58,3.87-1.72,5.77-1.15,1.89-2.99,2.84-5.53,2.84h-27.73v47.18c0,2.3-1.24,4.05-3.72,5.25-2.48,1.21-5.17,1.81-8.07,1.81s-5.74-.6-8.16-1.81c-2.42-1.21-3.62-2.95-3.62-5.25V7.06Z"/>
    </g>
    <g>
      <path class="cls-1" d="m14.86,271.54c-1.57,0-3.23-.23-4.98-.69-1.75-.46-3.35-1.09-4.8-1.89-1.45-.8-2.66-1.78-3.62-2.93-.97-1.15-1.45-2.41-1.45-3.79,0-.23.12-.8.36-1.72l34.98-108.3c.84-2.64,2.72-4.56,5.62-5.77,2.9-1.21,6.04-1.81,9.42-1.81s6.71.6,9.61,1.81c2.9,1.21,4.77,3.13,5.62,5.77l34.98,108.3c.24.92.36,1.49.36,1.72,0,1.38-.48,2.61-1.45,3.7-.97,1.09-2.18,2.07-3.62,2.93-1.45.86-3.05,1.52-4.8,1.98-1.75.46-3.42.69-4.98.69-2.06,0-3.78-.34-5.17-1.03-1.39-.69-2.33-1.83-2.81-3.44l-6.89-22.9H29.72l-6.89,22.9c-.48,1.61-1.42,2.75-2.81,3.44-1.39.69-3.11,1.03-5.17,1.03Zm51.29-44.94l-15.77-52.86-15.77,52.86h31.54Z"/>
      <path class="cls-1" d="m166.57,152.55c0-2.41,1.21-4.16,3.62-5.25,2.42-1.09,5.13-1.64,8.16-1.64s5.59.55,8.07,1.64c2.48,1.09,3.72,2.84,3.72,5.25v80.58c0,7.23-1.12,13.34-3.35,18.34-2.24,4.99-5.32,9.04-9.24,12.14-3.93,3.1-8.55,5.37-13.87,6.8-5.32,1.43-11,2.15-17.04,2.15s-11.87-.72-17.13-2.15-9.85-3.7-13.77-6.8c-3.93-3.1-7.01-7.15-9.24-12.14-2.24-4.99-3.35-11.11-3.35-18.34v-80.58c0-2.41,1.21-4.16,3.62-5.25,2.42-1.09,5.13-1.64,8.16-1.64s5.59.55,8.07,1.64c2.48,1.09,3.72,2.84,3.72,5.25v80.58c0,6.77,1.75,11.77,5.26,14.98,3.5,3.21,8.4,4.82,14.68,4.82s11.17-1.61,14.68-4.82c3.5-3.21,5.26-8.21,5.26-14.98v-80.58Z"/>
      <path class="cls-1" d="m244.68,145.67c5.92,0,11.48.72,16.67,2.15,5.19,1.44,9.73,3.7,13.59,6.8,3.87,3.1,6.89,7.15,9.06,12.14,2.17,4.99,3.26,11.11,3.26,18.34v47.01c0,7.23-1.09,13.34-3.26,18.34s-5.2,9.04-9.06,12.14c-3.87,3.1-8.4,5.37-13.59,6.8-5.2,1.44-10.76,2.15-16.67,2.15h-32.08c-3.14,0-5.65-.69-7.52-2.07-1.87-1.38-2.81-2.98-2.81-4.82v-112.09c0-1.83.93-3.44,2.81-4.82,1.87-1.38,4.38-2.07,7.52-2.07h32.08Zm-18.85,19.63v86.61h18.85c6.04,0,10.72-1.61,14.05-4.82,3.32-3.21,4.98-8.21,4.98-14.98v-47.01c0-6.77-1.66-11.76-4.98-14.98-3.32-3.21-8.01-4.82-14.05-4.82h-18.85Z"/>
      <path class="cls-1" d="m298.51,152.55c0-2.41,1.21-4.16,3.62-5.25,2.42-1.09,5.13-1.64,8.16-1.64s5.59.55,8.07,1.64c2.47,1.09,3.72,2.84,3.72,5.25v111.92c0,2.3-1.24,4.05-3.72,5.25-2.48,1.21-5.17,1.81-8.07,1.81s-5.74-.6-8.16-1.81c-2.42-1.21-3.62-2.95-3.62-5.25v-111.92Z"/>
      <path class="cls-1" d="m375.72,272.57c-6.04,0-11.63-.72-16.77-2.15-5.14-1.43-9.61-3.7-13.41-6.8-3.81-3.1-6.8-7.15-8.97-12.14s-3.26-11.11-3.26-18.34v-48.04c0-7.23,1.09-13.34,3.26-18.34,2.17-4.99,5.17-9.04,8.97-12.14,3.81-3.1,8.28-5.36,13.41-6.8,5.13-1.43,10.72-2.15,16.77-2.15s11.48.72,16.67,2.15c5.19,1.44,9.72,3.7,13.59,6.8,3.87,3.1,6.89,7.15,9.06,12.14,2.17,4.99,3.26,11.11,3.26,18.34v48.04c0,7.23-1.09,13.34-3.26,18.34-2.18,4.99-5.2,9.04-9.06,12.14-3.87,3.1-8.4,5.37-13.59,6.8-5.2,1.43-10.76,2.15-16.67,2.15Zm19.03-87.47c0-6.89-1.69-11.91-5.08-15.07-3.38-3.16-8.04-4.74-13.96-4.74s-10.69,1.58-13.96,4.74c-3.26,3.16-4.89,8.18-4.89,15.07v48.04c0,6.89,1.63,11.91,4.89,15.07,3.26,3.16,7.91,4.74,13.96,4.74s10.57-1.58,13.96-4.74c3.38-3.16,5.08-8.18,5.08-15.07v-48.04Z"/>
    </g>
    <g>
      <path class="cls-2" d="m.43,300.45c0-.29.13-.5.38-.64.25-.13.53-.2.84-.2s.59.07.84.2c.25.14.38.35.38.64v19.47c0,.29-.13.51-.38.65-.25.15-.53.22-.84.22s-.59-.07-.84-.22c-.25-.14-.38-.36-.38-.65v-19.47Z"/>
      <path class="cls-2" d="m8.89,319.93c0,.21-.12.41-.36.59-.24.18-.53.28-.85.28-.35,0-.63-.09-.85-.28-.22-.18-.33-.38-.33-.59v-12.03c0-.25.11-.45.33-.61.22-.15.51-.23.85-.23.29,0,.55.08.77.23.22.15.33.36.33.61v1.19c.29-.56.76-1.07,1.42-1.52s1.48-.68,2.46-.68c.7,0,1.35.15,1.97.44.62.29,1.16.69,1.62,1.2.46.51.83,1.11,1.1,1.78s.41,1.39.41,2.14v7.48c0,.29-.13.51-.38.65-.25.15-.53.22-.84.22-.29,0-.56-.07-.81-.22-.25-.14-.38-.36-.38-.65v-7.48c0-.42-.09-.84-.26-1.25-.17-.41-.41-.77-.71-1.09-.3-.32-.65-.57-1.06-.77-.41-.19-.83-.29-1.27-.29-.39,0-.77.08-1.14.23-.38.16-.71.38-1.01.67-.3.29-.54.65-.72,1.07-.18.42-.28.9-.28,1.42v7.48Z"/>
      <path class="cls-2" d="m23.46,319.93c0,.21-.12.41-.36.59-.24.18-.53.28-.85.28-.35,0-.63-.09-.85-.28-.22-.18-.33-.38-.33-.59v-12.03c0-.25.11-.45.33-.61.22-.15.51-.23.85-.23.29,0,.55.08.77.23.22.15.33.36.33.61v1.19c.29-.56.76-1.07,1.42-1.52s1.48-.68,2.46-.68c.7,0,1.35.15,1.97.44.62.29,1.16.69,1.62,1.2.46.51.83,1.11,1.1,1.78s.41,1.39.41,2.14v7.48c0,.29-.13.51-.38.65-.25.15-.53.22-.84.22-.29,0-.56-.07-.81-.22-.25-.14-.38-.36-.38-.65v-7.48c0-.42-.09-.84-.26-1.25-.17-.41-.41-.77-.71-1.09-.3-.32-.65-.57-1.06-.77-.41-.19-.83-.29-1.27-.29-.39,0-.77.08-1.14.23-.38.16-.71.38-1.01.67-.3.29-.54.65-.72,1.07-.18.42-.28.9-.28,1.42v7.48Z"/>
      <path class="cls-2" d="m40.82,306.89c.77,0,1.51.15,2.2.44.7.29,1.3.69,1.83,1.2.52.51.94,1.11,1.25,1.78s.46,1.39.46,2.14v2.96c0,.73-.15,1.44-.46,2.12-.31.68-.72,1.28-1.25,1.8-.52.52-1.13.94-1.83,1.25-.7.31-1.43.46-2.2.46s-1.5-.15-2.19-.46c-.69-.31-1.29-.72-1.81-1.25-.52-.52-.94-1.12-1.25-1.8-.31-.68-.46-1.38-.46-2.12v-2.96c0-.73.15-1.44.45-2.12.3-.68.71-1.27,1.23-1.78s1.12-.92,1.81-1.22c.69-.3,1.42-.45,2.22-.45Zm3.33,5.56c0-.42-.09-.84-.26-1.25-.17-.41-.41-.77-.71-1.09-.3-.32-.65-.57-1.06-.77-.41-.19-.84-.29-1.3-.29s-.9.1-1.3.29c-.41.19-.75.45-1.04.77-.29.32-.52.68-.7,1.09-.17.41-.26.82-.26,1.25v2.96c0,.44.09.87.26,1.29.17.42.41.78.71,1.1.3.32.65.58,1.04.77.4.19.83.29,1.29.29s.89-.1,1.29-.29c.4-.19.75-.45,1.06-.77.31-.32.55-.69.72-1.1.17-.42.26-.84.26-1.29v-2.96Z"/>
      <path class="cls-2" d="m48.21,308.51s-.04-.11-.07-.2c-.03-.1-.04-.18-.04-.26,0-.13.05-.27.15-.41.1-.13.22-.25.38-.33s.32-.16.51-.22c.18-.06.35-.09.51-.09.17,0,.33.04.48.12.14.08.25.19.3.35l3.68,9.85,3.62-9.74c.08-.17.17-.31.29-.42.12-.11.28-.16.49-.16.13,0,.29.03.48.09.18.06.35.13.51.22.15.09.29.2.41.33.12.14.17.27.17.41,0,.16-.04.31-.12.46l-4.75,12.03c-.08.16-.22.28-.43.38-.21.1-.43.14-.67.14-.27,0-.51-.04-.71-.13-.2-.09-.34-.22-.42-.39l-4.75-12.03Z"/>
      <path class="cls-2" d="m66.26,306.89c1,0,1.86.16,2.56.48s1.28.74,1.72,1.26.76,1.12.96,1.8c.19.68.29,1.37.29,2.09v7.42c0,.25-.11.46-.33.62-.22.16-.51.25-.85.25-.33,0-.59-.08-.8-.25-.2-.16-.3-.37-.3-.62v-1.16c-.5.58-1.11,1.1-1.83,1.56s-1.56.7-2.55.7c-.54,0-1.05-.08-1.52-.23-.47-.15-.89-.39-1.25-.71-.36-.32-.64-.72-.84-1.2-.2-.48-.3-1.05-.3-1.71,0-.81.16-1.47.49-1.99.33-.51.79-.92,1.39-1.23.6-.31,1.31-.52,2.14-.64.83-.12,1.75-.17,2.75-.17h1.39v-.61c0-.42-.06-.85-.17-1.27-.12-.42-.3-.81-.55-1.16-.25-.35-.58-.63-.99-.84-.41-.21-.9-.32-1.48-.32-.5,0-.93.04-1.27.13s-.64.18-.87.29c-.23.11-.42.2-.58.29s-.3.13-.43.13c-.29,0-.51-.14-.67-.41s-.23-.54-.23-.81c0-.23.12-.45.38-.65.25-.2.57-.38.97-.54s.84-.28,1.32-.36.97-.13,1.45-.13Zm3.13,7.74h-1.01c-.62,0-1.21.02-1.78.07-.57.05-1.07.15-1.51.3s-.78.38-1.04.68-.39.71-.39,1.23c0,.75.21,1.3.64,1.65.42.35.96.52,1.59.52.41,0,.82-.09,1.25-.28.42-.18.8-.42,1.13-.71.33-.29.6-.61.81-.96.21-.35.32-.69.32-1.01v-1.51Z"/>
      <path class="cls-2" d="m77.44,316.42c0,.83.17,1.42.52,1.75s.98.51,1.88.51h.9c.33,0,.58.11.77.32.18.21.28.45.28.72s-.09.52-.28.74-.44.33-.77.33h-.9c-1.56,0-2.76-.35-3.58-1.04-.82-.7-1.23-1.81-1.23-3.33v-14.92c0-.25.13-.45.39-.61.26-.15.53-.23.8-.23.31,0,.59.08.84.23.25.16.38.36.38.61v5.56h3.65c.21,0,.39.1.52.29.13.19.2.42.2.67s-.07.47-.2.65c-.14.18-.31.28-.52.28h-3.65v7.48Z"/>
      <path class="cls-2" d="m85.27,300.54c.41,0,.75.14,1.04.41.29.27.43.59.43.96s-.15.69-.43.97c-.29.28-.64.42-1.04.42s-.78-.14-1.07-.42c-.29-.28-.43-.6-.43-.97s.14-.69.43-.96c.29-.27.65-.41,1.07-.41Zm0,6.52c.33,0,.61.08.85.23.24.15.36.36.36.61v12.03c0,.21-.12.41-.36.59-.24.18-.53.28-.85.28s-.61-.09-.84-.28c-.23-.18-.35-.38-.35-.59v-12.03c0-.25.12-.45.35-.61.23-.15.51-.23.84-.23Z"/>
      <path class="cls-2" d="m88.66,308.51s-.04-.11-.07-.2c-.03-.1-.04-.18-.04-.26,0-.13.05-.27.15-.41.1-.13.22-.25.38-.33s.32-.16.51-.22c.18-.06.35-.09.51-.09.17,0,.33.04.48.12.14.08.25.19.3.35l3.68,9.85,3.62-9.74c.08-.17.17-.31.29-.42.12-.11.28-.16.49-.16.13,0,.29.03.48.09.18.06.35.13.51.22.15.09.29.2.41.33.12.14.17.27.17.41,0,.16-.04.31-.12.46l-4.75,12.03c-.08.16-.22.28-.43.38-.21.1-.43.14-.67.14-.27,0-.51-.04-.71-.13-.2-.09-.34-.22-.42-.39l-4.75-12.03Z"/>
      <path class="cls-2" d="m107.81,306.89c.73,0,1.44.13,2.12.39.68.26,1.27.63,1.78,1.1s.92,1.04,1.22,1.69c.3.66.45,1.37.45,2.14,0,.58-.07,1.03-.22,1.35-.15.32-.34.56-.58.72-.24.16-.52.26-.83.29-.31.03-.63.04-.96.04h-6.35v.87c0,1.08.38,1.94,1.14,2.56.76.63,1.75.94,2.97.94.54,0,1-.06,1.36-.17.37-.12.68-.25.94-.39.26-.15.48-.28.67-.39s.36-.17.54-.17c.29,0,.53.13.71.39s.28.5.28.71c0,.19-.11.41-.32.64-.21.23-.52.45-.91.67-.4.21-.88.39-1.45.54-.57.14-1.2.22-1.9.22-.95,0-1.81-.13-2.59-.41s-1.46-.65-2.03-1.14-1.01-1.08-1.33-1.77-.48-1.45-.48-2.3v-3.04c0-.73.15-1.43.45-2.1.3-.67.71-1.25,1.23-1.75.52-.5,1.13-.9,1.84-1.19.71-.29,1.45-.44,2.25-.44Zm2,6.11c.5,0,.84-.06,1.01-.17.17-.12.26-.37.26-.75,0-.42-.08-.84-.25-1.23-.16-.4-.39-.74-.68-1.04-.29-.3-.64-.54-1.04-.72s-.85-.28-1.33-.28-.89.08-1.29.25-.75.39-1.06.67c-.31.28-.55.61-.72,1-.17.39-.26.8-.26,1.25v1.04h5.36Z"/>
      <path class="cls-2" d="m122.18,300.45c0-.21.09-.41.26-.58.17-.17.42-.26.72-.26h5.48c.85,0,1.65.11,2.41.33.75.22,1.41.58,1.96,1.07.55.49.99,1.14,1.3,1.94s.48,1.77.48,2.91v.26c0,1.14-.16,2.11-.48,2.9-.32.79-.76,1.44-1.33,1.94-.57.5-1.24.87-2,1.1-.76.23-1.58.35-2.45.35h-3.91v7.5c0,.29-.13.51-.38.65-.25.15-.53.22-.84.22s-.59-.07-.84-.22c-.25-.14-.38-.36-.38-.65v-19.47Zm2.43,1.36v8.58h3.91c1.2,0,2.13-.34,2.81-1.01.68-.68,1.01-1.71,1.01-3.1v-.35c0-1.41-.34-2.45-1.01-3.11-.68-.67-1.61-1-2.81-1h-3.91Z"/>
      <path class="cls-2" d="m138.79,298.77c.33,0,.61.08.85.23.24.15.36.36.36.61v20.31c0,.21-.12.41-.36.59-.24.18-.53.28-.85.28-.35,0-.63-.09-.85-.28-.22-.18-.33-.38-.33-.59v-20.31c0-.25.11-.45.33-.61.22-.15.51-.23.85-.23Z"/>
      <path class="cls-2" d="m149.31,321.03c-.79,0-1.54-.15-2.23-.46-.7-.31-1.3-.72-1.83-1.23s-.93-1.1-1.23-1.77c-.3-.67-.45-1.37-.45-2.1v-7.53c0-.21.12-.41.35-.59.23-.18.52-.28.87-.28.31,0,.58.09.83.28.24.18.36.38.36.59v7.53c0,.43.09.84.26,1.25.17.41.41.77.71,1.09s.65.58,1.06.77c.41.19.84.29,1.3.29s.89-.1,1.29-.29c.4-.19.74-.44,1.04-.75.3-.31.54-.67.71-1.07s.26-.83.26-1.28v-7.56c0-.21.12-.41.36-.58.24-.17.53-.26.85-.26.35,0,.63.09.85.26s.33.37.33.58v7.56c0,.73-.15,1.44-.45,2.12-.3.68-.71,1.27-1.23,1.78-.52.51-1.13.92-1.83,1.22-.7.3-1.43.45-2.2.45Z"/>
      <path class="cls-2" d="m163.07,317.43c-.79,0-1.51-.14-2.14-.43-.19.12-.36.25-.51.39-.15.14-.22.34-.22.59,0,.41.22.69.67.85.44.16.99.29,1.65.38s1.37.18,2.14.28c.77.1,1.49.27,2.14.52s1.21.62,1.65,1.12c.44.49.67,1.18.67,2.07,0,.71-.15,1.34-.45,1.87-.3.53-.71.97-1.25,1.32-.53.35-1.15.61-1.87.78-.71.17-1.49.26-2.32.26s-1.64-.09-2.38-.28c-.73-.18-1.37-.44-1.9-.77-.53-.33-.95-.73-1.26-1.22-.31-.48-.46-1.03-.46-1.65,0-.81.24-1.47.71-1.98.47-.51,1.02-.9,1.64-1.17-.44-.15-.8-.38-1.07-.67-.27-.29-.41-.71-.41-1.27s.13-.97.39-1.29c.26-.32.61-.6,1.06-.85-.52-.42-.93-.95-1.22-1.58-.29-.63-.44-1.32-.44-2.07v-.96c0-.7.13-1.34.38-1.93.25-.59.6-1.1,1.04-1.52.44-.42.99-.75,1.62-.98.64-.23,1.34-.35,2.12-.35.68,0,1.3.1,1.87.3s1.08.48,1.52.83c.29-.64.61-1.11.96-1.42s.69-.46,1.01-.46.58.1.77.29c.18.19.28.4.28.61,0,.15-.05.29-.15.41-.1.12-.21.2-.35.26-.21.06-.46.17-.75.35-.29.17-.56.46-.81.87.31.37.54.79.68,1.26.15.47.22.97.22,1.49v.96c0,.7-.13,1.33-.39,1.91-.26.58-.62,1.09-1.09,1.52-.46.43-1.01.77-1.65,1.01-.64.24-1.34.36-2.12.36Zm3.71,5.82c0-.54-.17-.96-.52-1.26-.35-.3-.77-.52-1.28-.67s-1.04-.24-1.61-.29c-.57-.05-1.09-.1-1.55-.16-.62.21-1.15.51-1.61.88-.45.38-.68.87-.68,1.49,0,.75.33,1.36,1,1.81.67.45,1.56.68,2.68.68s1.97-.23,2.61-.68c.64-.45.96-1.06.96-1.81Zm-.81-11.59c0-.87-.25-1.61-.75-2.22-.5-.61-1.21-.91-2.12-.91s-1.63.3-2.12.91c-.48.61-.72,1.35-.72,2.22v.93c0,.91.25,1.67.74,2.27.49.61,1.2.91,2.13.91.87,0,1.56-.29,2.07-.88s.77-1.35.77-2.27v-.96Z"/>
      <path class="cls-2" d="m172.75,300.54c.41,0,.75.14,1.04.41.29.27.43.59.43.96s-.15.69-.43.97c-.29.28-.64.42-1.04.42s-.78-.14-1.07-.42c-.29-.28-.43-.6-.43-.97s.14-.69.43-.96c.29-.27.65-.41,1.07-.41Zm0,6.52c.33,0,.61.08.85.23.24.15.36.36.36.61v12.03c0,.21-.12.41-.36.59-.24.18-.53.28-.85.28s-.61-.09-.84-.28c-.23-.18-.35-.38-.35-.59v-12.03c0-.25.12-.45.35-.61.23-.15.51-.23.84-.23Z"/>
      <path class="cls-2" d="m179.79,319.93c0,.21-.12.41-.36.59-.24.18-.53.28-.85.28-.35,0-.63-.09-.85-.28-.22-.18-.33-.38-.33-.59v-12.03c0-.25.11-.45.33-.61.22-.15.51-.23.85-.23.29,0,.55.08.77.23.22.15.33.36.33.61v1.19c.29-.56.76-1.07,1.42-1.52s1.48-.68,2.46-.68c.7,0,1.35.15,1.97.44.62.29,1.16.69,1.62,1.2.46.51.83,1.11,1.1,1.78s.41,1.39.41,2.14v7.48c0,.29-.13.51-.38.65-.25.15-.53.22-.84.22-.29,0-.56-.07-.81-.22-.25-.14-.38-.36-.38-.65v-7.48c0-.42-.09-.84-.26-1.25-.17-.41-.41-.77-.71-1.09-.3-.32-.65-.57-1.06-.77-.41-.19-.83-.29-1.27-.29-.39,0-.77.08-1.14.23-.38.16-.71.38-1.01.67-.3.29-.54.65-.72,1.07-.18.42-.28.9-.28,1.42v7.48Z"/>
      <path class="cls-2" d="m195.78,319.09c1.04,0,1.76-.19,2.16-.56.4-.38.59-.8.59-1.26,0-.58-.17-1.03-.52-1.35-.35-.32-.78-.58-1.3-.78s-1.09-.38-1.71-.54c-.62-.15-1.19-.37-1.71-.65s-.96-.65-1.3-1.1-.52-1.09-.52-1.9c0-.48.08-.97.25-1.45.16-.48.43-.92.81-1.3.38-.39.87-.7,1.48-.94.61-.24,1.35-.36,2.22-.36.5,0,1,.04,1.49.13s.93.2,1.32.35c.39.14.7.31.93.51.23.19.35.39.35.58,0,.1-.02.21-.07.35-.05.13-.11.27-.19.41-.08.14-.18.25-.3.33-.13.09-.26.13-.39.13s-.29-.04-.48-.13c-.18-.09-.4-.18-.64-.29-.24-.11-.53-.2-.85-.29-.33-.09-.71-.13-1.13-.13-.48,0-.89.06-1.23.19-.34.13-.61.29-.81.49-.2.2-.35.42-.45.67-.1.24-.15.47-.15.68,0,.5.17.88.52,1.13s.79.46,1.32.64c.53.17,1.1.34,1.71.51.61.16,1.18.4,1.71.71.53.31.97.72,1.32,1.23s.52,1.2.52,2.07c0,1.2-.42,2.14-1.25,2.84s-2.03,1.04-3.59,1.04c-.7,0-1.33-.07-1.91-.2s-1.08-.31-1.51-.52c-.43-.21-.75-.45-.99-.71-.23-.26-.35-.52-.35-.77,0-.21.08-.45.23-.71.15-.26.36-.39.61-.39.17,0,.35.07.52.22.17.15.4.3.68.46.28.16.63.32,1.04.46.42.14.94.22,1.58.22Z"/>
      <path class="cls-2" d="m211.54,307.06h3.97c.23,0,.42.1.55.29.13.19.2.42.2.67s-.07.47-.2.65c-.14.18-.32.28-.55.28h-3.97v11.01c0,.25-.13.45-.38.61-.25.15-.54.23-.87.23s-.6-.08-.83-.23c-.22-.15-.33-.36-.33-.61v-15.76c0-.75.13-1.46.41-2.12.27-.66.64-1.23,1.12-1.72.47-.49,1.02-.88,1.64-1.16s1.27-.42,1.97-.42h1.01c.33,0,.57.11.74.33.16.22.25.47.25.74s-.08.51-.25.72c-.16.21-.41.32-.74.32h-.61c-.44,0-.86.08-1.25.25-.39.16-.72.39-.99.67-.27.28-.49.61-.65.99-.16.38-.25.78-.25,1.2v3.07Z"/>
      <path class="cls-2" d="m223.05,306.89c.77,0,1.51.15,2.2.44.7.29,1.3.69,1.83,1.2.52.51.94,1.11,1.25,1.78.31.68.46,1.39.46,2.14v2.96c0,.73-.15,1.44-.46,2.12-.31.68-.72,1.28-1.25,1.8-.52.52-1.13.94-1.83,1.25-.7.31-1.43.46-2.2.46s-1.5-.15-2.19-.46c-.69-.31-1.29-.72-1.81-1.25-.52-.52-.94-1.12-1.25-1.8-.31-.68-.46-1.38-.46-2.12v-2.96c0-.73.15-1.44.45-2.12.3-.68.71-1.27,1.23-1.78s1.12-.92,1.81-1.22c.69-.3,1.42-.45,2.22-.45Zm3.33,5.56c0-.42-.09-.84-.26-1.25-.17-.41-.41-.77-.71-1.09-.3-.32-.65-.57-1.06-.77-.41-.19-.84-.29-1.3-.29s-.9.1-1.3.29-.75.45-1.04.77c-.29.32-.52.68-.7,1.09-.17.41-.26.82-.26,1.25v2.96c0,.44.09.87.26,1.29.17.42.41.78.71,1.1.3.32.65.58,1.04.77.4.19.83.29,1.29.29s.89-.1,1.29-.29c.4-.19.75-.45,1.06-.77.31-.32.55-.69.72-1.1.17-.42.26-.84.26-1.29v-2.96Z"/>
      <path class="cls-2" d="m237.77,309.06c-.46,0-.92.1-1.36.29s-.84.47-1.17.84c-.34.37-.61.82-.83,1.35-.21.53-.32,1.12-.32,1.78v6.61c0,.21-.12.41-.36.59s-.53.28-.85.28c-.35,0-.63-.09-.85-.28-.22-.18-.33-.38-.33-.59v-12.03c0-.25.11-.45.33-.61.22-.15.51-.23.85-.23.31,0,.57.08.78.23s.32.36.32.61v1.36c.33-.6.82-1.14,1.46-1.64.65-.49,1.42-.74,2.33-.74h.98c.25,0,.47.11.65.33s.28.48.28.77-.09.54-.28.75c-.18.21-.4.32-.65.32h-.98Z"/>
      <path class="cls-2" d="m257.65,305.15c-.02-.29-.07-.63-.16-1.01s-.26-.75-.52-1.09-.64-.63-1.13-.87c-.49-.24-1.14-.36-1.96-.36-1.26,0-2.21.33-2.87,1-.66.67-.99,1.71-.99,3.11v8.72c0,1.41.33,2.45,1,3.11.67.67,1.65,1,2.94,1,.81,0,1.45-.12,1.91-.35s.82-.52,1.07-.87c.25-.35.42-.72.51-1.12.09-.4.15-.77.19-1.12.06-.56.46-.84,1.22-.84.41,0,.71.09.91.26s.3.54.3,1.1c0,.71-.14,1.39-.43,2.01-.29.63-.71,1.17-1.25,1.64s-1.2.83-1.98,1.09c-.78.26-1.66.39-2.62.39-.85,0-1.65-.11-2.41-.33-.75-.22-1.41-.58-1.97-1.09-.56-.5-1-1.15-1.33-1.96-.33-.8-.49-1.78-.49-2.94v-8.72c0-1.16.16-2.14.49-2.94s.78-1.45,1.35-1.96c.57-.5,1.23-.86,1.98-1.09.75-.22,1.56-.33,2.41-.33.97,0,1.83.13,2.61.39.77.26,1.43.62,1.97,1.07.54.45.96.99,1.25,1.59.29.61.43,1.27.43,1.99,0,.56-.1.92-.3,1.09-.2.17-.51.25-.91.25-.77,0-1.18-.28-1.22-.84Z"/>
      <path class="cls-2" d="m268.92,309.06c-.46,0-.92.1-1.36.29s-.83.47-1.17.84c-.34.37-.61.82-.83,1.35s-.32,1.12-.32,1.78v6.61c0,.21-.12.41-.36.59-.24.18-.53.28-.86.28-.35,0-.63-.09-.85-.28-.22-.18-.33-.38-.33-.59v-12.03c0-.25.11-.45.33-.61.22-.15.51-.23.85-.23.31,0,.57.08.78.23.21.15.32.36.32.61v1.36c.33-.6.82-1.14,1.46-1.64.65-.49,1.42-.74,2.33-.74h.99c.25,0,.47.11.65.33s.28.48.28.77-.09.54-.28.75c-.18.21-.4.32-.65.32h-.99Z"/>
      <path class="cls-2" d="m277.61,306.89c.73,0,1.44.13,2.12.39.68.26,1.27.63,1.78,1.1s.92,1.04,1.22,1.69c.3.66.45,1.37.45,2.14,0,.58-.07,1.03-.22,1.35-.14.32-.34.56-.58.72-.24.16-.52.26-.83.29-.31.03-.63.04-.96.04h-6.35v.87c0,1.08.38,1.94,1.14,2.56.76.63,1.75.94,2.97.94.54,0,1-.06,1.36-.17.37-.12.68-.25.94-.39.26-.15.48-.28.67-.39s.36-.17.54-.17c.29,0,.53.13.71.39s.28.5.28.71c0,.19-.11.41-.32.64-.21.23-.52.45-.91.67-.4.21-.88.39-1.45.54-.57.14-1.2.22-1.9.22-.95,0-1.81-.13-2.59-.41s-1.46-.65-2.03-1.14c-.57-.49-1.01-1.08-1.33-1.77-.32-.69-.48-1.45-.48-2.3v-3.04c0-.73.15-1.43.45-2.1.3-.67.71-1.25,1.23-1.75.52-.5,1.13-.9,1.84-1.19.71-.29,1.45-.44,2.25-.44Zm2,6.11c.5,0,.84-.06,1.01-.17.17-.12.26-.37.26-.75,0-.42-.08-.84-.25-1.23-.16-.4-.39-.74-.68-1.04-.29-.3-.64-.54-1.04-.72-.41-.18-.85-.28-1.33-.28s-.89.08-1.29.25c-.4.16-.75.39-1.06.67-.31.28-.55.61-.72,1-.17.39-.26.8-.26,1.25v1.04h5.36Z"/>
      <path class="cls-2" d="m289.98,306.89c1,0,1.86.16,2.56.48s1.28.74,1.72,1.26.76,1.12.96,1.8c.19.68.29,1.37.29,2.09v7.42c0,.25-.11.46-.33.62-.22.16-.51.25-.86.25-.33,0-.59-.08-.8-.25-.2-.16-.3-.37-.3-.62v-1.16c-.5.58-1.11,1.1-1.83,1.56s-1.56.7-2.55.7c-.54,0-1.05-.08-1.52-.23-.47-.15-.89-.39-1.25-.71-.36-.32-.64-.72-.84-1.2-.2-.48-.3-1.05-.3-1.71,0-.81.16-1.47.49-1.99.33-.51.79-.92,1.39-1.23.6-.31,1.31-.52,2.14-.64.83-.12,1.75-.17,2.75-.17h1.39v-.61c0-.42-.06-.85-.17-1.27s-.3-.81-.55-1.16-.58-.63-.99-.84c-.41-.21-.9-.32-1.48-.32-.5,0-.93.04-1.27.13s-.64.18-.87.29c-.23.11-.42.2-.58.29-.16.09-.3.13-.43.13-.29,0-.51-.14-.67-.41-.15-.27-.23-.54-.23-.81,0-.23.12-.45.38-.65.25-.2.57-.38.97-.54.4-.15.83-.28,1.32-.36.48-.09.97-.13,1.45-.13Zm3.13,7.74h-1.01c-.62,0-1.21.02-1.78.07-.57.05-1.07.15-1.51.3s-.78.38-1.04.68-.39.71-.39,1.23c0,.75.21,1.3.64,1.65.42.35.96.52,1.59.52.41,0,.82-.09,1.25-.28.42-.18.8-.42,1.13-.71.33-.29.6-.61.81-.96.21-.35.32-.69.32-1.01v-1.51Z"/>
      <path class="cls-2" d="m301.17,316.42c0,.83.17,1.42.52,1.75s.98.51,1.88.51h.9c.33,0,.58.11.77.32.18.21.28.45.28.72s-.09.52-.28.74-.44.33-.77.33h-.9c-1.56,0-2.76-.35-3.58-1.04s-1.23-1.81-1.23-3.33v-14.92c0-.25.13-.45.39-.61.26-.15.53-.23.8-.23.31,0,.59.08.84.23.25.16.38.36.38.61v5.56h3.65c.21,0,.39.1.52.29.13.19.2.42.2.67s-.07.47-.2.65c-.14.18-.31.28-.52.28h-3.65v7.48Z"/>
      <path class="cls-2" d="m308.99,300.54c.41,0,.75.14,1.04.41.29.27.43.59.43.96s-.14.69-.43.97c-.29.28-.64.42-1.04.42s-.78-.14-1.07-.42c-.29-.28-.43-.6-.43-.97s.15-.69.43-.96c.29-.27.65-.41,1.07-.41Zm0,6.52c.33,0,.61.08.86.23.24.15.36.36.36.61v12.03c0,.21-.12.41-.36.59-.24.18-.53.28-.86.28s-.61-.09-.84-.28c-.23-.18-.35-.38-.35-.59v-12.03c0-.25.12-.45.35-.61.23-.15.51-.23.84-.23Z"/>
      <path class="cls-2" d="m312.38,308.51s-.04-.11-.07-.2c-.03-.1-.04-.18-.04-.26,0-.13.05-.27.14-.41.1-.13.22-.25.38-.33s.32-.16.51-.22c.18-.06.35-.09.51-.09.17,0,.33.04.48.12.15.08.25.19.3.35l3.68,9.85,3.62-9.74c.08-.17.17-.31.29-.42.12-.11.28-.16.49-.16.13,0,.29.03.48.09.18.06.35.13.51.22s.29.2.41.33c.12.14.17.27.17.41,0,.16-.04.31-.12.46l-4.75,12.03c-.08.16-.22.28-.43.38-.21.1-.43.14-.67.14-.27,0-.51-.04-.71-.13s-.34-.22-.42-.39l-4.75-12.03Z"/>
      <path class="cls-2" d="m331.53,306.89c.73,0,1.44.13,2.12.39.68.26,1.27.63,1.78,1.1s.92,1.04,1.22,1.69c.3.66.45,1.37.45,2.14,0,.58-.07,1.03-.22,1.35-.15.32-.34.56-.58.72s-.52.26-.83.29c-.31.03-.63.04-.96.04h-6.35v.87c0,1.08.38,1.94,1.14,2.56.76.63,1.75.94,2.97.94.54,0,.99-.06,1.36-.17.37-.12.68-.25.94-.39.26-.15.48-.28.67-.39s.36-.17.54-.17c.29,0,.53.13.71.39s.28.5.28.71c0,.19-.11.41-.32.64-.21.23-.52.45-.91.67-.4.21-.88.39-1.45.54-.57.14-1.2.22-1.9.22-.95,0-1.81-.13-2.59-.41s-1.46-.65-2.03-1.14c-.57-.49-1.01-1.08-1.33-1.77-.32-.69-.48-1.45-.48-2.3v-3.04c0-.73.15-1.43.45-2.1.3-.67.71-1.25,1.23-1.75.52-.5,1.13-.9,1.84-1.19.71-.29,1.45-.44,2.25-.44Zm2,6.11c.5,0,.84-.06,1.01-.17.17-.12.26-.37.26-.75,0-.42-.08-.84-.25-1.23-.16-.4-.39-.74-.68-1.04-.29-.3-.64-.54-1.04-.72-.41-.18-.85-.28-1.33-.28s-.89.08-1.29.25-.75.39-1.06.67c-.31.28-.55.61-.72,1-.17.39-.26.8-.26,1.25v1.04h5.36Z"/>
      <path class="cls-2" d="m354.54,312.94c-.14.25-.29.42-.45.52s-.33.14-.51.14c-.16,0-.31-.05-.46-.14-.16-.1-.3-.27-.43-.52l-4.35-8.35v15.33c0,.29-.13.51-.38.65-.25.15-.53.22-.84.22s-.59-.07-.84-.22c-.25-.14-.38-.36-.38-.65v-19.12c0-.44.12-.75.36-.93.24-.17.53-.26.85-.26.44,0,.81.13,1.1.39.29.26.57.64.84,1.14l4.55,8.72,4.58-8.72c.27-.5.55-.88.84-1.14s.66-.39,1.1-.39c.33,0,.61.09.85.26.24.17.36.48.36.93v19.12c0,.29-.13.51-.38.65-.25.15-.53.22-.84.22s-.59-.07-.84-.22c-.25-.14-.38-.36-.38-.65v-15.21l-4.38,8.23Z"/>
      <path class="cls-2" d="m366.31,300.54c.41,0,.75.14,1.04.41.29.27.43.59.43.96s-.14.69-.43.97c-.29.28-.64.42-1.04.42s-.78-.14-1.07-.42c-.29-.28-.43-.6-.43-.97s.15-.69.43-.96c.29-.27.65-.41,1.07-.41Zm0,6.52c.33,0,.61.08.86.23.24.15.36.36.36.61v12.03c0,.21-.12.41-.36.59-.24.18-.53.28-.86.28s-.61-.09-.84-.28c-.23-.18-.35-.38-.35-.59v-12.03c0-.25.12-.45.35-.61.23-.15.51-.23.84-.23Z"/>
      <path class="cls-2" d="m373.35,319.93c0,.21-.12.41-.36.59-.24.18-.53.28-.86.28-.35,0-.63-.09-.85-.28-.22-.18-.33-.38-.33-.59v-12.03c0-.25.11-.45.33-.61.22-.15.51-.23.85-.23.29,0,.55.08.77.23.22.15.33.36.33.61v1.19c.29-.56.76-1.07,1.42-1.52.66-.45,1.48-.68,2.46-.68.7,0,1.35.15,1.97.44.62.29,1.16.69,1.62,1.2s.83,1.11,1.1,1.78c.27.68.41,1.39.41,2.14v7.48c0,.29-.13.51-.38.65-.25.15-.53.22-.84.22-.29,0-.56-.07-.81-.22-.25-.14-.38-.36-.38-.65v-7.48c0-.42-.09-.84-.26-1.25-.17-.41-.41-.77-.71-1.09-.3-.32-.65-.57-1.06-.77-.41-.19-.83-.29-1.27-.29-.39,0-.77.08-1.14.23-.38.16-.71.38-1.01.67-.3.29-.54.65-.72,1.07s-.28.9-.28,1.42v7.48Z"/>
      <path class="cls-2" d="m395.2,298.77c.35,0,.63.08.85.23.22.15.33.36.33.61v20.31c0,.21-.11.41-.33.59-.22.18-.51.28-.85.28-.31,0-.57-.09-.78-.28-.21-.18-.32-.38-.32-.59v-1.16c-.31.6-.82,1.13-1.54,1.58-.71.45-1.54.68-2.46.68-.68,0-1.32-.15-1.94-.46-.62-.31-1.16-.72-1.62-1.25s-.84-1.12-1.12-1.8c-.28-.68-.42-1.38-.42-2.12v-2.96c0-.75.13-1.47.41-2.14s.64-1.27,1.12-1.78,1.02-.91,1.65-1.2c.63-.29,1.3-.44,2.01-.44.93,0,1.71.23,2.35.68s1.12.96,1.45,1.52v-9.48c0-.25.12-.45.36-.61.24-.15.53-.23.85-.23Zm-7.79,16.63c0,.44.09.87.26,1.28.17.41.41.77.71,1.1.3.33.65.59,1.04.78.4.19.82.29,1.26.29s.9-.1,1.3-.3c.41-.2.76-.45,1.06-.74.3-.29.53-.58.7-.88.16-.3.25-.55.25-.74v-3.74c0-.52-.1-.99-.29-1.42s-.44-.78-.74-1.07c-.3-.29-.65-.51-1.04-.67-.4-.15-.8-.23-1.2-.23-.46,0-.89.1-1.29.29-.4.19-.74.45-1.04.77-.3.32-.54.68-.71,1.09-.17.41-.26.82-.26,1.25v2.96Z"/>
      <path class="cls-2" d="m403.66,319.09c1.04,0,1.76-.19,2.16-.56.4-.38.59-.8.59-1.26,0-.58-.17-1.03-.52-1.35-.35-.32-.78-.58-1.3-.78s-1.09-.38-1.71-.54c-.62-.15-1.19-.37-1.71-.65-.52-.28-.96-.65-1.3-1.1s-.52-1.09-.52-1.9c0-.48.08-.97.25-1.45.16-.48.44-.92.81-1.3.38-.39.87-.7,1.48-.94.61-.24,1.35-.36,2.22-.36.5,0,1,.04,1.49.13.49.09.93.2,1.32.35.39.14.7.31.93.51.23.19.35.39.35.58,0,.1-.02.21-.07.35-.05.13-.11.27-.19.41-.08.14-.18.25-.3.33-.13.09-.26.13-.39.13s-.29-.04-.48-.13-.4-.18-.64-.29c-.24-.11-.53-.2-.86-.29s-.71-.13-1.13-.13c-.48,0-.89.06-1.23.19-.34.13-.61.29-.81.49s-.35.42-.45.67c-.1.24-.14.47-.14.68,0,.5.17.88.52,1.13s.79.46,1.32.64c.53.17,1.1.34,1.71.51s1.18.4,1.71.71.97.72,1.32,1.23c.35.51.52,1.2.52,2.07,0,1.2-.42,2.14-1.25,2.84-.83.7-2.03,1.04-3.59,1.04-.7,0-1.33-.07-1.91-.2s-1.08-.31-1.51-.52c-.42-.21-.75-.45-.99-.71-.23-.26-.35-.52-.35-.77,0-.21.08-.45.23-.71.15-.26.36-.39.61-.39.17,0,.35.07.52.22.17.15.4.3.68.46s.63.32,1.04.46c.42.14.94.22,1.58.22Z"/>
    </g>
  </g>
</svg>