<?xml version="1.0" encoding="UTF-8"?>
<svg id="Layer_2" data-name="Layer 2" xmlns="http://www.w3.org/2000/svg" viewBox="0 0 802.71 118.88">
  <defs>
    <style>
      .cls-1 {
        fill: #3b3b3b;
        stroke-width: 0px;
      }
    </style>
  </defs>
  <g id="Layer_1-2" data-name="Layer 1">
    <g>
      <path class="cls-1" d="m0,7.52c0-2.13.93-3.76,2.8-4.88,1.87-1.12,3.97-1.68,6.32-1.68h55.84c2.24,0,3.86.96,4.88,2.88,1.01,1.92,1.52,3.95,1.52,6.08,0,2.46-.54,4.62-1.6,6.48-1.07,1.87-2.67,2.8-4.8,2.8H20.8v32h24.48c2.13,0,3.73.85,4.8,2.56,1.06,1.71,1.6,3.63,1.6,5.76,0,1.81-.51,3.6-1.52,5.36-1.01,1.76-2.64,2.64-4.88,2.64h-24.48v43.84c0,2.13-1.09,3.76-3.28,4.88-2.19,1.12-4.56,1.68-7.12,1.68s-5.07-.56-7.2-1.68c-2.13-1.12-3.2-2.74-3.2-4.88V7.52Z"/>
      <path class="cls-1" d="m86.08,117.92c-2.35,0-4.46-.56-6.32-1.68-1.87-1.12-2.8-2.74-2.8-4.88V7.36c0-2.24,1.06-3.86,3.2-4.88,2.13-1.01,4.53-1.52,7.2-1.52s4.93.51,7.12,1.52c2.19,1.02,3.28,2.64,3.28,4.88v92.32h39.04c2.13,0,3.71.93,4.72,2.8,1.01,1.87,1.52,3.98,1.52,6.32s-.51,4.32-1.52,6.24c-1.02,1.92-2.59,2.88-4.72,2.88h-50.72Z"/>
      <path class="cls-1" d="m184.32,118.88c-5.33,0-10.27-.67-14.8-2-4.54-1.33-8.48-3.44-11.84-6.32-3.36-2.88-6-6.64-7.92-11.28-1.92-4.64-2.88-10.32-2.88-17.04v-44.64c0-6.72.96-12.4,2.88-17.04,1.92-4.64,4.56-8.4,7.92-11.28,3.36-2.88,7.3-4.98,11.84-6.32,4.53-1.33,9.46-2,14.8-2s10.13.67,14.72,2c4.58,1.33,8.58,3.44,12,6.32,3.41,2.88,6.08,6.64,8,11.28,1.92,4.64,2.88,10.32,2.88,17.04v44.64c0,6.72-.96,12.4-2.88,17.04-1.92,4.64-4.59,8.4-8,11.28-3.42,2.88-7.42,4.99-12,6.32-4.59,1.33-9.5,2-14.72,2Zm16.8-81.28c0-6.4-1.5-11.06-4.48-14-2.99-2.93-7.1-4.4-12.32-4.4s-9.44,1.47-12.32,4.4c-2.88,2.94-4.32,7.6-4.32,14v44.64c0,6.4,1.44,11.07,4.32,14,2.88,2.94,6.98,4.4,12.32,4.4s9.33-1.46,12.32-4.4c2.98-2.93,4.48-7.6,4.48-14v-44.64Z"/>
      <path class="cls-1" d="m271.52,118.88c-5.33,0-10.27-.67-14.8-2-4.54-1.33-8.48-3.44-11.84-6.32-3.36-2.88-6-6.64-7.92-11.28-1.92-4.64-2.88-10.32-2.88-17.04v-44.64c0-6.72.96-12.4,2.88-17.04,1.92-4.64,4.56-8.4,7.92-11.28,3.36-2.88,7.3-4.98,11.84-6.32,4.53-1.33,9.46-2,14.8-2s10.13.67,14.72,2c4.58,1.33,8.58,3.44,12,6.32,3.41,2.88,6.08,6.64,8,11.28,1.92,4.64,2.88,10.32,2.88,17.04v44.64c0,6.72-.96,12.4-2.88,17.04-1.92,4.64-4.59,8.4-8,11.28-3.42,2.88-7.42,4.99-12,6.32-4.59,1.33-9.5,2-14.72,2Zm16.8-81.28c0-6.4-1.5-11.06-4.48-14-2.99-2.93-7.1-4.4-12.32-4.4s-9.44,1.47-12.32,4.4c-2.88,2.94-4.32,7.6-4.32,14v44.64c0,6.4,1.44,11.07,4.32,14,2.88,2.94,6.98,4.4,12.32,4.4s9.33-1.46,12.32-4.4c2.98-2.93,4.48-7.6,4.48-14v-44.64Z"/>
      <path class="cls-1" d="m322.56,7.52c0-2.13.93-3.76,2.8-4.88,1.87-1.12,3.97-1.68,6.32-1.68h55.84c2.24,0,3.87.96,4.88,2.88,1.01,1.92,1.52,3.95,1.52,6.08,0,2.46-.54,4.62-1.6,6.48-1.07,1.87-2.67,2.8-4.8,2.8h-44.16v32h24.48c2.13,0,3.73.85,4.8,2.56,1.06,1.71,1.6,3.63,1.6,5.76,0,1.81-.51,3.6-1.52,5.36-1.01,1.76-2.64,2.64-4.88,2.64h-24.48v43.84c0,2.13-1.09,3.76-3.28,4.88-2.19,1.12-4.56,1.68-7.12,1.68s-5.07-.56-7.2-1.68c-2.13-1.12-3.2-2.74-3.2-4.88V7.52Z"/>
      <path class="cls-1" d="m432.15,117.92c-1.39,0-2.85-.21-4.4-.64-1.55-.43-2.96-1.01-4.24-1.76-1.28-.75-2.35-1.65-3.2-2.72-.85-1.06-1.28-2.24-1.28-3.52,0-.21.1-.75.32-1.6l30.88-100.64c.75-2.45,2.4-4.24,4.96-5.36,2.56-1.12,5.33-1.68,8.32-1.68s5.92.56,8.48,1.68c2.56,1.12,4.21,2.91,4.96,5.36l30.88,100.64c.21.86.32,1.39.32,1.6,0,1.28-.43,2.43-1.28,3.44-.86,1.02-1.92,1.92-3.2,2.72-1.28.8-2.7,1.41-4.24,1.84-1.55.43-3.01.64-4.4.64-1.82,0-3.33-.32-4.56-.96-1.23-.64-2.05-1.71-2.48-3.2l-6.08-21.28h-36.64l-6.08,21.28c-.43,1.5-1.26,2.56-2.48,3.2-1.23.64-2.75.96-4.56.96Zm45.28-41.76l-13.92-49.12-13.92,49.12h27.84Z"/>
      <path class="cls-1" d="m569.6,7.36c0-2.24,1.06-3.86,3.2-4.88,2.13-1.01,4.53-1.52,7.2-1.52s4.93.51,7.12,1.52c2.19,1.02,3.28,2.64,3.28,4.88v74.88c0,6.72-.99,12.4-2.96,17.04-1.97,4.64-4.7,8.4-8.16,11.28-3.47,2.88-7.55,4.99-12.24,6.32-4.69,1.33-9.71,2-15.04,2s-10.48-.67-15.12-2c-4.64-1.33-8.7-3.44-12.16-6.32-3.47-2.88-6.19-6.64-8.16-11.28-1.97-4.64-2.96-10.32-2.96-17.04V7.36c0-2.24,1.06-3.86,3.2-4.88,2.13-1.01,4.53-1.52,7.2-1.52s4.93.51,7.12,1.52c2.19,1.02,3.28,2.64,3.28,4.88v74.88c0,6.3,1.54,10.94,4.64,13.92,3.09,2.99,7.41,4.48,12.96,4.48s9.87-1.49,12.96-4.48c3.09-2.99,4.64-7.62,4.64-13.92V7.36Z"/>
      <path class="cls-1" d="m642.24.96c5.22,0,10.13.67,14.72,2,4.58,1.33,8.58,3.44,12,6.32,3.41,2.88,6.08,6.64,8,11.28,1.92,4.64,2.88,10.32,2.88,17.04v43.68c0,6.72-.96,12.4-2.88,17.04-1.92,4.64-4.59,8.4-8,11.28-3.42,2.88-7.42,4.99-12,6.32-4.59,1.33-9.5,2-14.72,2h-28.32c-2.77,0-4.99-.64-6.64-1.92-1.66-1.28-2.48-2.77-2.48-4.48V7.36c0-1.71.83-3.2,2.48-4.48,1.65-1.28,3.87-1.92,6.64-1.92h28.32Zm-16.64,18.24v80.48h16.64c5.33,0,9.46-1.49,12.4-4.48,2.93-2.99,4.4-7.62,4.4-13.92v-43.68c0-6.29-1.47-10.93-4.4-13.92-2.94-2.98-7.07-4.48-12.4-4.48h-16.64Z"/>
      <path class="cls-1" d="m693.27,7.36c0-2.24,1.07-3.86,3.2-4.88,2.13-1.01,4.53-1.52,7.2-1.52s4.93.51,7.12,1.52c2.18,1.02,3.28,2.64,3.28,4.88v104c0,2.13-1.1,3.76-3.28,4.88-2.19,1.12-4.56,1.68-7.12,1.68s-5.07-.56-7.2-1.68c-2.13-1.12-3.2-2.74-3.2-4.88V7.36Z"/>
      <path class="cls-1" d="m765.11,118.88c-5.33,0-10.27-.67-14.8-2-4.54-1.33-8.48-3.44-11.84-6.32-3.36-2.88-6-6.64-7.92-11.28-1.92-4.64-2.88-10.32-2.88-17.04v-44.64c0-6.72.96-12.4,2.88-17.04,1.92-4.64,4.56-8.4,7.92-11.28,3.36-2.88,7.3-4.98,11.84-6.32,4.53-1.33,9.46-2,14.8-2s10.13.67,14.72,2c4.58,1.33,8.58,3.44,12,6.32,3.41,2.88,6.08,6.64,8,11.28,1.92,4.64,2.88,10.32,2.88,17.04v44.64c0,6.72-.96,12.4-2.88,17.04-1.92,4.64-4.59,8.4-8,11.28-3.42,2.88-7.42,4.99-12,6.32-4.59,1.33-9.5,2-14.72,2Zm16.8-81.28c0-6.4-1.49-11.06-4.48-14-2.99-2.93-7.09-4.4-12.32-4.4s-9.44,1.47-12.32,4.4c-2.88,2.94-4.32,7.6-4.32,14v44.64c0,6.4,1.44,11.07,4.32,14,2.88,2.94,6.98,4.4,12.32,4.4s9.33-1.46,12.32-4.4c2.99-2.93,4.48-7.6,4.48-14v-44.64Z"/>
    </g>
  </g>
</svg>